<?xml version="1.0" encoding="utf-8"?>
<!-- Generator: Adobe Illustrator 19.2.1, SVG Export Plug-In . SVG Version: 6.00 Build 0)  -->
<svg version="1.1" id="Layer_1" xmlns="http://www.w3.org/2000/svg" xmlns:xlink="http://www.w3.org/1999/xlink" x="0px" y="0px"
	 viewBox="0 0 250 100" style="enable-background:new 0 0 250 100;" xml:space="preserve">
<style type="text/css">
	.st0{clip-path:url(#SVGID_2_);}
	.st1{clip-path:url(#SVGID_4_);fill:#FFFFFF;}
</style>
<g id="Artwork_8">
	<g>
		<defs>
			<rect id="SVGID_1_" x="17.3" y="24.6" width="215.4" height="54.9"/>
		</defs>
		<clipPath id="SVGID_2_">
			<use xlink:href="#SVGID_1_"  style="overflow:visible;"/>
		</clipPath>
		<g class="st0">
			<defs>
				<rect id="SVGID_3_" x="17.3" y="24.6" width="215.4" height="54.9"/>
			</defs>
			<clipPath id="SVGID_4_">
				<use xlink:href="#SVGID_3_"  style="overflow:visible;"/>
			</clipPath>
			<path class="st1" d="M26.2,43.1c0,2.6,3,3.7,6.2,3.7c3.8,0,12.7-2.4,12.7-9.9c0-7.6-8.9-11-14.8-11c-3.9,0-4,0.7-4,1.2V43.1z
				 M23.3,47.7c-1.4,0-3.2,0.2-4.3,0.2c-0.2,0-0.9,0-0.9-0.4c0-0.3,0.3-0.6,1.8-0.8c1-0.2,2.2-0.3,2.2-2.4V26.9c0-0.7-2-0.6-3.3-0.7
				c-1.1-0.1-1.5-0.1-1.5-0.5c0-0.6,1.3-0.6,1.9-0.6h4.4c2.4,0,4.6-0.2,7.7-0.2c10.1,0,18.3,3.8,18.3,12.8c0,5.6-6.7,10.1-14.9,10.1
				H23.3z"/>
			<path class="st1" d="M94.7,28.3c0-1.7-0.6-1.8-2.4-2.1c-0.8-0.1-1.6,0-1.6-0.7c0-0.3,0.4-0.5,1-0.5c1.4,0,2.8,0.1,4.1,0.1
				c1.4,0,2.9-0.1,4.2-0.1c0.7,0,0.9,0.3,0.9,0.6c0,0.6-0.6,0.5-1.6,0.6c-1.7,0.2-2.8,0.3-2.8,2v10.8c0,6-2.2,9.3-12.9,9.3
				c-9.6,0-10.8-3.2-10.8-8.7c0-4.4,0.2-7.6,0.2-10.8c0-1.9-0.2-2.6-2-2.6c-1.5,0-2.6,0-2.6-0.5c0-0.5,0.3-0.7,1-0.7
				c2,0,3.6,0.1,5.6,0.1c2.1,0,3.1-0.1,5.4-0.1c0.3,0,1.2,0.1,1.2,0.6c0,0.6-0.6,0.6-2.1,0.6c-0.8,0.1-1.8,0.3-2,1
				C77,28.9,77,38.3,77,40.4c0,4.5,2.1,6.7,8.4,6.7c6.7,0,9.2-2.4,9.2-8.1V28.3z"/>
			<path class="st1" d="M124.8,27.9c0-1-0.1-1.6-1-1.6c-2.2-0.1-2.7-0.1-2.7-0.7c0-0.5,0.9-0.5,1.2-0.5c1.6,0,3.2,0.1,4.8,0.1
				c1.6,0,3.5-0.1,4.9-0.1c0.4,0,1.1,0,1.1,0.5c0,0.7-1.5,0.5-2.6,0.7c-1.4,0.3-1.4,0.8-1.4,1.9v7.5c0,0.2,0.1,0.3,0.2,0.3
				c0.2,0,0.3-0.1,0.5-0.3l12.6-8.4c0.3-0.2,0.6-0.3,0.6-0.6c0-0.3-0.2-0.3-2.5-0.5c-1.6-0.1-1.9-0.1-1.9-0.6c0-0.6,0.8-0.6,1.5-0.6
				c1.7,0,3.3,0.1,4.9,0.1c1.7,0,3.3-0.1,5-0.1c0.5,0,1.1,0.1,1.1,0.5c0,0.6-0.6,0.7-1.8,0.7c-1.2,0-2.3,0.6-2.7,0.8l-12.6,7.3
				c-0.1,0.1-0.2,0.2-0.2,0.3c0,0.3,0.4,0.5,0.7,0.8l10.4,7.1c2.5,1.7,5.2,4,6.5,4.2c1.6,0.2,1.9,0.3,1.9,0.7c0,0.5-0.9,0.5-1.3,0.5
				c-1.9,0-3.7-0.2-5.6-0.2c-1.9,0-3.8,0.2-5.7,0.2c-0.8,0-1.2-0.1-1.2-0.6c0-0.4,0.9-0.5,3-0.6c0.4,0,0.8-0.4,0.8-0.7
				c0-0.5-11.9-9-13.3-9c-0.8,0-0.8,0.2-0.8,0.6v6.7c0,0.5,0.1,1,0.3,1.4c0.3,0.6,1.3,0.8,2.3,1c0.9,0.2,1.9,0.1,1.9,0.6
				c0,0.5-0.9,0.6-1.4,0.6c-1.7,0-3.6-0.2-5.5-0.2c-1.8,0-3.7,0.2-5.5,0.2c-0.8,0-0.9-0.3-0.9-0.6c0.1-0.7,1.2-0.6,2.1-0.6
				c1.5-0.1,2.6-0.7,2.6-2.7V27.9z"/>
			<path class="st1" d="M175.5,27.7c0-1-0.5-1.2-2.3-1.5c-1.5-0.2-2.1-0.3-2.1-0.7c0-0.3,0.7-0.4,1.4-0.4c1.8,0,5.7,0.1,6.9,0.1
				c1.4,0,8.2-0.1,12.3-0.1c0.7,0,0.7,0.4,0.7,1.2v3.6c0,0.1-0.2,0.2-0.4,0.2c-0.6,0-0.5-0.4-1.3-1.7c-0.7-1.3-1-1.9-9.2-1.9
				c-1.7,0-2,0.5-2,1.7v6.4c0,0.8,0.7,0.8,2.4,0.8h4.2c3.6,0,2.5-3.2,3.7-3.2c0.6,0,0.7,0.3,0.7,0.7c0,0.9-0.2,1.4-0.2,3.1
				c0,1.6,0.2,2.6,0.2,3.6c0,0.3,0,0.6-0.5,0.6c-0.7,0-0.8-0.6-1-1.7c-0.4-1.9-0.9-2.2-6.8-2.2c-2.3,0-2.6,0.2-2.6,0.9v7.2
				c0,1.7,0.2,1.8,5.8,1.8c3.3,0,4.4-0.4,5.4-1.3c2.3-2,2.1-3,2.9-3c0.4,0,0.5,0.2,0.5,0.4c0,0.1-0.1,0.3-0.2,0.6l-0.9,3.8
				c-0.1,0.6-0.4,0.8-1.1,0.8h-13.7c-5.3,0-5.8,0.2-6.3,0.2c-0.4,0-1.2,0-1.2-0.4c0-0.6,0.9-0.5,2.1-0.7c1.3-0.3,2.7-0.1,2.7-1.7
				V27.7z"/>
			<path class="st1" d="M230.5,30.2c0,0.1-0.1,0.3-0.4,0.3c-1.6,0,0-4.7-6.5-4.7c-3.8,0-5.3,1.6-5.3,3.4c0,5.3,14.4,4.6,14.4,12.3
				c0,4.8-4.5,6.9-10.3,6.9c-0.8,0-3-0.3-4.7-0.6c-3-0.5-3.5-1.1-3.5-3.4c0-1,0.1-3.2,1.1-3.2c1.2,0,0.2,1.1,1.6,3.1
				c0.5,0.7,2.1,2.8,6.2,2.8c4.6,0,6.4-2.1,6.4-4c0-5.6-14.5-5.3-14.5-12.4c0-3.1,3-6.2,9.1-6.2c0.7,0,1.6,0,2.6,0.2
				c3.7,0.6,3.7,1,3.7,2.4V30.2z"/>
			<polygon class="st1" points="79.2,67 79.2,79.1 84.8,79.1 84.8,78.4 79.9,78.4 79.9,67 			"/>
			<path class="st1" d="M101.2,68.6c-1.2-1.2-2.8-1.8-4.6-1.8c-1.1,0-2.2,0.3-3.2,0.8c-1,0.6-1.7,1.3-2.3,2.3
				c-0.6,1-0.8,2.1-0.8,3.2c0,1.7,0.6,3.2,1.9,4.5c1.2,1.2,2.8,1.8,4.6,1.8c1.8,0,3.3-0.6,4.5-1.9c1.2-1.2,1.8-2.7,1.8-4.5
				C103,71.3,102.4,69.8,101.2,68.6 M99.5,78c-0.9,0.5-1.8,0.7-2.8,0.7c-1.5,0-2.9-0.5-3.9-1.6c-1.1-1.1-1.6-2.4-1.6-4
				c0-1.1,0.2-2,0.7-2.9c0.5-0.9,1.2-1.6,2.1-2.1c1.8-1,3.9-1,5.6,0c0.9,0.5,1.6,1.2,2.1,2c0.5,0.8,0.7,1.8,0.7,2.8
				c0,1-0.2,2-0.7,2.9C101,76.8,100.3,77.5,99.5,78"/>
			<polygon class="st1" points="119,67 118.3,67 118.3,77.2 109.6,67.2 109.6,79.1 110.4,79.1 110.4,69.1 119,79 			"/>
			<path class="st1" d="M135.6,76.5c0.5-0.9,0.8-2,0.8-3.2c0-1.4-0.3-2.6-1-3.6c-0.7-1-1.6-1.7-2.7-2.1c-0.8-0.3-2.2-0.4-4-0.4h-2.4
				v12.1h3.8c1.5,0,2.7-0.2,3.5-0.7C134.4,78,135.1,77.4,135.6,76.5 M132.4,78.1c-0.7,0.2-1.9,0.3-3.7,0.3H127V67.8h1.2
				c1.9,0,3.2,0.1,4,0.4c1.1,0.3,2,1,2.6,1.9c0.6,0.9,0.9,2,0.9,3.3c0,1.2-0.3,2.2-0.9,3.1C134.2,77.2,133.4,77.8,132.4,78.1"/>
			<path class="st1" d="M153,68.6c-1.2-1.2-2.8-1.8-4.6-1.8c-1.1,0-2.2,0.3-3.2,0.8c-1,0.6-1.7,1.3-2.3,2.3c-0.6,1-0.8,2.1-0.8,3.2
				c0,1.7,0.6,3.2,1.9,4.5c1.2,1.2,2.8,1.8,4.5,1.8c1.8,0,3.3-0.6,4.5-1.9c1.2-1.2,1.8-2.7,1.8-4.5C154.9,71.3,154.2,69.8,153,68.6
				 M151.3,78c-0.9,0.5-1.8,0.7-2.8,0.7c-1.5,0-2.9-0.5-3.9-1.6c-1.1-1.1-1.6-2.4-1.6-4c0-1.1,0.2-2,0.7-2.9
				c0.5-0.9,1.2-1.6,2.1-2.1c1.8-1,3.9-1,5.6,0c0.9,0.5,1.6,1.2,2.1,2c0.5,0.8,0.7,1.8,0.7,2.8c0,1-0.2,2-0.7,2.9
				C152.9,76.8,152.2,77.5,151.3,78"/>
			<polygon class="st1" points="170.8,67 170.1,67 170.1,77.2 161.4,67.2 161.4,79.1 162.2,79.1 162.2,69.1 170.8,79 			"/>
		</g>
	</g>
</g>
</svg>
